<svg xmlns="http://www.w3.org/2000/svg" xmlns:xlink="http://www.w3.org/1999/xlink" width="80" height="80" viewBox="0 0 80 80">
  <metadata><?xpacket begin="﻿" id="W5M0MpCehiHzreSzNTczkc9d"?>
<x:xmpmeta xmlns:x="adobe:ns:meta/" x:xmptk="Adobe XMP Core 5.6-c140 79.160451, 2017/05/06-01:08:21        ">
   <rdf:RDF xmlns:rdf="http://www.w3.org/1999/02/22-rdf-syntax-ns#">
      <rdf:Description rdf:about=""/>
   </rdf:RDF>
</x:xmpmeta>
                                                                                                    
                                                                                                    
                                                                                                    
                                                                                                    
                                                                                                    
                                                                                                    
                                                                                                    
                                                                                                    
                                                                                                    
                                                                                                    
                                                                                                    
                                                                                                    
                                                                                                    
                                                                                                    
                                                                                                    
                                                                                                    
                                                                                                    
                                                                                                    
                                                                                                    
                                                                                                    
                           
<?xpacket end="w"?></metadata>
<defs>
    <style>
      .cls-1 {
        fill: url(#linear-gradient);
      }

      .cls-2 {
        fill: #fdfdfd;
        fill-rule: evenodd;
      }
    </style>
    <linearGradient id="linear-gradient" x1="40" y1="60" x2="40" y2="20" gradientUnits="userSpaceOnUse">
      <stop offset="0" stop-color="#8750ff"/>
      <stop offset="0.992" stop-color="#9381fd"/>
      <stop offset="1" stop-color="#9381fd"/>
    </linearGradient>
  </defs>
  <g id="画板_1" data-name="画板 1">
    <g id="组_83" data-name="组 83">
      <rect id="圆角矩形_1133_拷贝" data-name="圆角矩形 1133 拷贝" class="cls-1" x="7" y="20" width="66" height="40" rx="4" ry="4"/>
      <path id="椭圆_1708" data-name="椭圆 1708" class="cls-2" d="M55,45.59C55,48.989,53.043,49,50.006,49a14.179,14.179,0,0,1-3.826-.329C44.941,50,42.418,50,39.5,50c-3.395,0-6.259,0-7.183-2.083A20.3,20.3,0,0,1,29.993,48C26.956,48,24,47.989,24,44.589a5.343,5.343,0,0,1,2.793-4.9,3.5,3.5,0,1,1,5.414,0,5.161,5.161,0,0,1,2.041,1.965A8.518,8.518,0,0,1,39.5,40a8.227,8.227,0,0,1,5.669,2.046A5.2,5.2,0,0,1,47.5,40.366a3.5,3.5,0,1,1,4,0A5.315,5.315,0,0,1,55,45.59ZM39.5,39A4.5,4.5,0,1,1,44,34.5,4.5,4.5,0,0,1,39.5,39Z"/>
    </g>
  </g>
</svg>
