<svg xmlns="http://www.w3.org/2000/svg" xmlns:xlink="http://www.w3.org/1999/xlink" width="80" height="80" viewBox="0 0 80 80">
  <metadata><?xpacket begin="﻿" id="W5M0MpCehiHzreSzNTczkc9d"?>
<x:xmpmeta xmlns:x="adobe:ns:meta/" x:xmptk="Adobe XMP Core 5.6-c140 79.160451, 2017/05/06-01:08:21        ">
   <rdf:RDF xmlns:rdf="http://www.w3.org/1999/02/22-rdf-syntax-ns#">
      <rdf:Description rdf:about=""/>
   </rdf:RDF>
</x:xmpmeta>
                                                                                                    
                                                                                                    
                                                                                                    
                                                                                                    
                                                                                                    
                                                                                                    
                                                                                                    
                                                                                                    
                                                                                                    
                                                                                                    
                                                                                                    
                                                                                                    
                                                                                                    
                                                                                                    
                                                                                                    
                                                                                                    
                                                                                                    
                                                                                                    
                                                                                                    
                                                                                                    
                           
<?xpacket end="w"?></metadata>
<defs>
    <style>
      .cls-1 {
        fill: url(#linear-gradient);
      }

      .cls-2 {
        fill: #fff;
        fill-rule: evenodd;
      }
    </style>
    <linearGradient id="linear-gradient" x1="40" y1="68" x2="40" y2="12" gradientUnits="userSpaceOnUse">
      <stop offset="0" stop-color="#f94"/>
      <stop offset="0.992" stop-color="#ffb359"/>
      <stop offset="1" stop-color="#ffb359"/>
    </linearGradient>
  </defs>
  <g id="画板_1" data-name="画板 1">
    <g id="组_85" data-name="组 85">
      <circle id="椭圆_1718" data-name="椭圆 1718" class="cls-1" cx="40" cy="40" r="28"/>
      <path id="多边形_568" data-name="多边形 568" class="cls-2" d="M40,55a14.957,14.957,0,0,1-12.066-6.114A1.5,1.5,0,0,1,27,47.5c0-.01.006-0.019,0.006-0.029s-0.026-.041-0.038-0.062l0.054-.014A1.489,1.489,0,0,1,28.5,46a1.474,1.474,0,0,1,1.219.675l0.266-.071a12.006,12.006,0,1,0-.359-12.616H34L28,41l-6-7.007h4.258A15,15,0,1,1,40,55Z"/>
      <path id="圆角矩形_569" data-name="圆角矩形 569" class="cls-2" d="M45.5,44h-7A1.5,1.5,0,0,1,37,42.5s0,0,0-.005,0,0,0,0v-8a1.5,1.5,0,1,1,3,0V41h5.5A1.5,1.5,0,1,1,45.5,44Z"/>
    </g>
  </g>
</svg>
