<svg id="图层_1" data-name="图层 1" xmlns="http://www.w3.org/2000/svg" viewBox="0 0 54 54"><defs><style>.cls-1,.cls-2{fill:#0f90ff;}.cls-1{opacity:0.1;}</style></defs><title>热招icon</title><circle class="cls-1" cx="27" cy="26.8" r="27"/><path class="cls-2" d="M27,16.12A10.68,10.68,0,1,0,37.68,26.8,10.68,10.68,0,0,0,27,16.12Zm4.07,10.64v1.51H27.88v.87h3.19v1.44H27.88v2.64H26.17V30.58H23V29.14h3.21v-.87H23V26.76h2.53L22.34,21h1.9l2.29,4.3c.19.36.34.66.47.94.13-.26.29-.61.49-1L29.66,21h2l-3.14,5.81h2.55v0Z"/></svg>