<svg id="图层_1" data-name="图层 1" xmlns="http://www.w3.org/2000/svg" viewBox="0 0 54 54"><defs><style>.cls-1,.cls-2{fill:#0f90ff;}.cls-1{opacity:0.1;}</style></defs><title>热招icon</title><circle class="cls-1" cx="27" cy="27.35" r="27"/><path class="cls-2" d="M38.93,17.18c-.9-.69-2.6-1-5.52,1.16-4.67,3.51-8.17,10.14-8.33,10.46l-.21.42.85.48.21-.42A35.4,35.4,0,0,1,28,25.88h.05a6,6,0,0,0,5.31.11,6.75,6.75,0,0,0,3-3.88,4,4,0,0,0,3-2.86C39.57,18.29,39.46,17.55,38.93,17.18Z"/><path class="cls-2" d="M32.14,29.44A1.55,1.55,0,0,0,30.6,28h-.26a1.38,1.38,0,0,0-1,.58A1.79,1.79,0,0,0,29,29.81a4.57,4.57,0,0,1-.85,3.29,4.11,4.11,0,0,1-3,1.64c-.16,0-.32.06-.48.06h0a4.38,4.38,0,0,1-4.3-3.61,4.27,4.27,0,0,1,.74-3.29A4.34,4.34,0,0,1,24,26.14a1.62,1.62,0,0,0,1.11-.58,1.56,1.56,0,0,0,.32-1.33A1.49,1.49,0,0,0,23.81,23h-.22a7.51,7.51,0,0,0-5.2,3.29,7.74,7.74,0,0,0-1,6.1A7.64,7.64,0,0,0,24.66,38h.21a7.53,7.53,0,0,0,5.57-2.7A7.43,7.43,0,0,0,32.14,29.44Z"/></svg>