<svg id="图层_1" data-name="图层 1" xmlns="http://www.w3.org/2000/svg" viewBox="0 0 54 54"><defs><style>.cls-1,.cls-2{fill:#0f90ff;}.cls-1{opacity:0.1;}</style></defs><title>热招icon</title><circle class="cls-1" cx="27.16" cy="27" r="27"/><path class="cls-2" d="M35.37,36H28.8A.82.82,0,0,1,28,35.2V28.64a.82.82,0,0,1,.82-.82h6.57a.81.81,0,0,1,.82.82V35.2A.81.81,0,0,1,35.37,36Zm-3.14-9.38a.65.65,0,0,1-.93,0l-3.77-3.76a.64.64,0,0,1,0-.93l3.75-3.76a.66.66,0,0,1,.94,0L36,22a.64.64,0,0,1,0,.93ZM25.52,36H19a.81.81,0,0,1-.82-.82V28.64a.81.81,0,0,1,.82-.82h6.56a.81.81,0,0,1,.82.82V35.2A.81.81,0,0,1,25.52,36Zm0-9.84H19a.81.81,0,0,1-.82-.82V18.8A.81.81,0,0,1,19,18h6.56a.81.81,0,0,1,.82.82v6.56A.81.81,0,0,1,25.52,26.18Z"/></svg>