<svg id="图层_1" data-name="图层 1" xmlns="http://www.w3.org/2000/svg" viewBox="0 0 54 54"><defs><style>.cls-1,.cls-2{fill:#0f90ff;}.cls-1{opacity:0.1;}</style></defs><title>热招icon</title><circle class="cls-1" cx="27" cy="27" r="27"/><path class="cls-2" d="M17.35,35.57V33.43h19.3v2.14Zm0-17.14h19.3V32.36H17.35ZM34.5,30.22V20.57H19.62l-.12,9.65Zm-13-5,2.27-2.27.76.75-2.27,2.28,2.27,2.27-.76.76-2.27-2.27-.76-.76Zm7.24-3.73-2.48,8.21-1-.31,2.48-8.21ZM30,22.73l2.55,2.4.85.8-.85.8L30,29.13l-.85-.8,2.55-2.4-2.55-2.4.85-.8Z"/></svg>