<svg id="图层_1" data-name="图层 1" xmlns="http://www.w3.org/2000/svg" viewBox="0 0 200 200"><defs><style>.cls-1{fill:#fff;opacity:0.7;}</style></defs><title>微信图标</title><path class="cls-1" d="M200,124.22C200,96.51,172.29,74,141.12,74c-33,0-59,22.56-59,50.27s25.94,50.28,59,50.28c6.91,0,13.9-1.77,20.8-3.45l19,10.43-5.2-17.34C189.63,153.7,200,139.81,200,124.22Zm-78-8.67a6.91,6.91,0,0,1,0-13.81c5.22,0,8.68,3.46,8.68,6.9S127.22,115.55,122,115.55Zm38.16,0a6.91,6.91,0,0,1,0-13.81c5.22,0,8.67,3.46,8.67,6.9S165.29,115.55,160.16,115.55Z"/><path class="cls-1" d="M135.4,67.82a67.78,67.78,0,0,1,6.82.39c-6.11-28.54-36.6-49.7-71.42-49.7C31.91,18.51,0,45,0,78.72c0,19.44,10.59,35.43,28.3,47.82l-7,21.32L46,135.4c8.86,1.72,16,3.53,24.78,3.53,2.19,0,4.39-.08,6.59-.3a51.87,51.87,0,0,1-2.2-14.83C75.19,92.91,101.77,67.82,135.4,67.82ZM97.29,48.61c5.33,0,8.86,3.53,8.86,8.87s-3.53,8.85-8.86,8.85S86.63,62.8,86.63,57.48,92,48.61,97.29,48.61ZM47.75,66.32c-5.34,0-10.66-3.52-10.66-8.85s5.33-8.86,10.66-8.86,8.86,3.53,8.86,8.86S53.08,66.32,47.75,66.32Z"/></svg>